<svg width="199" height="60" viewBox="0 0 199 60" fill="none" xmlns="http://www.w3.org/2000/svg">
<g clip-path="url(#clip0_25_104)">
<rect width="198.4" height="60" rx="3" fill="#001D2F"/>
<mask id="mask0_25_104" style="mask-type:luminance" maskUnits="userSpaceOnUse" x="0" y="0" width="199" height="60">
<path d="M0 -8.9407e-07H198.4V60H0V-8.9407e-07Z" fill="white"/>
</mask>
<g mask="url(#mask0_25_104)">
<path d="M69.2532 42.4644C67.6944 42.4644 66.3868 41.9368 65.3312 40.8808C64.2756 39.8252 63.7476 38.508 63.7476 36.9292C63.7476 35.3508 64.2756 34.0336 65.3312 32.9776C66.3868 31.9224 67.6944 31.394 69.2532 31.394C70.8516 31.394 72.1488 31.9716 73.1456 33.1256L72.1984 34.0432C71.478 33.1456 70.4964 32.6964 69.2532 32.6964C68.0988 32.6964 67.1244 33.0864 66.3304 33.8656C65.536 34.6452 65.1388 35.6664 65.1388 36.9292C65.1388 38.1924 65.536 39.2136 66.3304 39.9928C67.1244 40.7728 68.0988 41.162 69.2532 41.162C70.526 41.162 71.6116 40.6492 72.5092 39.6228L73.4564 40.5704C72.9728 41.1524 72.366 41.6136 71.636 41.954C70.9056 42.294 70.1116 42.4644 69.2532 42.4644Z" fill="white"/>
<path d="M76.0318 31.631V34.9758L75.9726 35.9822H76.0318C76.229 35.637 76.5398 35.3434 76.9642 35.1018C77.3882 34.8598 77.8422 34.7394 78.3258 34.7394C79.2234 34.7394 79.9094 35.0154 80.383 35.5678C80.8566 36.1206 81.0934 36.8606 81.0934 37.7882V42.2278H79.7318V37.995C79.7318 36.6534 79.1346 35.9822 77.941 35.9822C77.3786 35.9822 76.9198 36.2066 76.5646 36.6558C76.2094 37.105 76.0318 37.625 76.0318 38.217V42.2278H74.6702V31.631H76.0318Z" fill="white"/>
<path d="M84.0533 42.2278H82.6917V34.9758H83.9941V36.1598H84.0533C84.1913 35.7654 84.4749 35.4394 84.9041 35.183C85.3333 34.9266 85.7501 34.7982 86.1549 34.7982C86.5593 34.7982 86.8997 34.8574 87.1761 34.9758L86.6581 36.2486C86.4805 36.1798 86.2385 36.145 85.9329 36.145C85.4393 36.145 85.0029 36.3398 84.6229 36.7298C84.2433 37.1194 84.0533 37.6302 84.0533 38.2614V42.2278Z" fill="white"/>
<path d="M89.2697 40.5036C89.7381 40.982 90.2933 41.2216 90.9349 41.2216C91.5761 41.2216 92.1309 40.982 92.5997 40.5036C93.0685 40.0252 93.3029 39.3916 93.3029 38.6016C93.3029 37.8124 93.0685 37.1784 92.5997 36.7C92.1309 36.2216 91.5761 35.982 90.9349 35.982C90.2933 35.982 89.7381 36.2216 89.2697 36.7C88.8013 37.1784 88.5669 37.8124 88.5669 38.6016C88.5669 39.3916 88.8013 40.0252 89.2697 40.5036ZM88.2561 35.8416C88.9565 35.1068 89.8493 34.7392 90.9349 34.7392C92.0201 34.7392 92.9129 35.1068 93.6137 35.8416C94.3141 36.5768 94.6645 37.4968 94.6645 38.6016C94.6645 39.7072 94.3141 40.6272 93.6137 41.362C92.9129 42.0972 92.0201 42.4644 90.9349 42.4644C89.8493 42.4644 88.9565 42.0972 88.2561 41.362C87.5553 40.6272 87.2053 39.7072 87.2053 38.6016C87.2053 37.4968 87.5553 36.5768 88.2561 35.8416Z" fill="white"/>
<path d="M95.7595 42.2278V34.9758H97.0619V35.9822H97.1211C97.3283 35.6366 97.6467 35.3434 98.0759 35.1018C98.5051 34.8598 98.9315 34.739 99.3559 34.739C100.481 34.739 101.245 35.203 101.65 36.1302C102.242 35.203 103.086 34.739 104.181 34.739C105.04 34.739 105.686 35.013 106.12 35.5602C106.554 36.1078 106.771 36.8506 106.771 37.7878V42.2278H105.41V37.995C105.41 37.265 105.276 36.747 105.01 36.441C104.743 36.1354 104.338 35.9822 103.796 35.9822C103.263 35.9822 102.822 36.2094 102.472 36.663C102.121 37.117 101.946 37.635 101.946 38.217V42.2278H100.584V37.995C100.584 37.265 100.451 36.747 100.185 36.441C99.9187 36.1354 99.5139 35.9822 98.9711 35.9822C98.4383 35.9822 97.9967 36.2094 97.6467 36.663C97.2963 37.117 97.1211 37.635 97.1211 38.217V42.2278H95.7595Z" fill="white"/>
<path d="M113.608 37.7286C113.579 37.3142 113.389 36.9198 113.038 36.5446C112.688 36.1698 112.167 35.9822 111.477 35.9822C110.974 35.9822 110.537 36.1402 110.167 36.4558C109.797 36.7714 109.543 37.1958 109.405 37.7286H113.608ZM111.655 42.4646C110.559 42.4646 109.669 42.0998 108.983 41.3694C108.297 40.6394 107.955 39.717 107.955 38.6018C107.955 37.5462 108.287 36.6382 108.953 35.8786C109.619 35.119 110.471 34.739 111.507 34.739C112.582 34.739 113.443 35.0894 114.089 35.7898C114.735 36.4902 115.059 37.4278 115.059 38.6018L115.044 38.8538H109.317C109.355 39.5838 109.6 40.161 110.049 40.585C110.498 41.0094 111.023 41.2214 111.625 41.2214C112.602 41.2214 113.263 40.807 113.608 39.9782L114.822 40.4814C114.585 41.0438 114.195 41.515 113.653 41.895C113.11 42.2746 112.444 42.4646 111.655 42.4646Z" fill="white"/>
<path d="M131.546 31.631L128.719 42.2278H127.328L125.049 35.2422H124.989L122.71 42.2278H121.319L118.374 31.631H119.795L122.03 39.9634H122.089L124.383 33.0518H125.655L127.95 39.9634H128.009L130.125 31.631H131.546Z" fill="white"/>
<path d="M137.037 37.7286C137.007 37.3142 136.817 36.9198 136.467 36.5446C136.117 36.1698 135.596 35.9822 134.905 35.9822C134.402 35.9822 133.965 36.1402 133.595 36.4558C133.226 36.7714 132.971 37.1958 132.833 37.7286H137.037ZM135.083 42.4646C133.988 42.4646 133.097 42.0998 132.411 41.3694C131.726 40.6394 131.383 39.717 131.383 38.6018C131.383 37.5462 131.716 36.6382 132.382 35.8786C133.048 35.119 133.899 34.739 134.935 34.739C136.011 34.739 136.871 35.0894 137.517 35.7898C138.163 36.4902 138.487 37.4278 138.487 38.6018L138.472 38.8538H132.745C132.784 39.5838 133.028 40.161 133.477 40.585C133.926 41.0094 134.451 41.2214 135.053 41.2214C136.03 41.2214 136.691 40.807 137.037 39.9782L138.25 40.4814C138.013 41.0438 137.624 41.515 137.081 41.895C136.538 42.2746 135.872 42.4646 135.083 42.4646Z" fill="white"/>
<path d="M143.342 41.2216C143.973 41.2216 144.516 40.982 144.97 40.5036C145.424 40.0252 145.65 39.3916 145.65 38.6016C145.65 37.8128 145.424 37.1788 144.97 36.7C144.516 36.2216 143.973 35.982 143.342 35.982C142.7 35.982 142.155 36.2188 141.706 36.6928C141.257 37.166 141.033 37.8024 141.033 38.6016C141.033 39.4008 141.257 40.0376 141.706 40.5112C142.155 40.9844 142.7 41.2216 143.342 41.2216ZM143.564 42.4644C143.011 42.4644 142.516 42.3464 142.076 42.1096C141.637 41.8728 141.309 41.5768 141.092 41.2216H141.033V42.228H139.731V31.6308H141.092V34.976L141.033 35.982H141.092C141.309 35.6272 141.637 35.3308 142.076 35.0944C142.516 34.8576 143.011 34.7392 143.564 34.7392C144.501 34.7392 145.31 35.1092 145.991 35.8488C146.672 36.5892 147.012 37.5068 147.012 38.6016C147.012 39.6968 146.672 40.6144 145.991 41.3548C145.31 42.0948 144.501 42.4644 143.564 42.4644Z" fill="white"/>
<path d="M154.294 42.4646C153.524 42.4646 152.772 42.213 152.036 41.7098C151.302 41.2066 150.82 40.5014 150.594 39.5934L151.837 39.0902C151.985 39.6726 152.288 40.1634 152.747 40.563C153.206 40.9626 153.721 41.1622 154.294 41.1622C154.886 41.1622 155.391 41.0066 155.811 40.6962C156.23 40.3854 156.44 39.9634 156.44 39.4306C156.44 38.839 156.23 38.3826 155.811 38.0618C155.391 37.741 154.728 37.4426 153.82 37.1662C152.883 36.8706 152.172 36.4882 151.689 36.0194C151.205 35.551 150.964 34.9514 150.964 34.2214C150.964 33.4614 151.265 32.8002 151.867 32.2382C152.468 31.6754 153.252 31.3942 154.22 31.3942C155.118 31.3942 155.848 31.619 156.41 32.0678C156.972 32.517 157.337 33.0074 157.505 33.5402L156.262 34.0582C156.173 33.723 155.954 33.4122 155.603 33.1258C155.253 32.8398 154.802 32.6966 154.25 32.6966C153.726 32.6966 153.28 32.8422 152.91 33.1334C152.54 33.4242 152.355 33.787 152.355 34.2214C152.355 34.6158 152.525 34.949 152.866 35.2202C153.206 35.4914 153.706 35.7358 154.368 35.9526C154.89 36.1206 155.327 36.2834 155.678 36.441C156.028 36.599 156.383 36.8086 156.743 37.0702C157.103 37.3318 157.374 37.657 157.557 38.047C157.74 38.437 157.831 38.8882 157.831 39.401C157.831 39.9142 157.725 40.373 157.513 40.7774C157.3 41.1822 157.019 41.5026 156.669 41.7398C156.318 41.9762 155.941 42.1562 155.537 42.2798C155.132 42.403 154.718 42.4646 154.294 42.4646Z" fill="white"/>
<path d="M162.019 42.3462C161.26 42.3462 160.68 42.1442 160.28 41.7394C159.88 41.335 159.681 40.7626 159.681 40.0226V36.219H158.408V34.9758H159.681V32.7558H161.042V34.9758H162.818V36.219H161.042V39.919C161.042 40.7086 161.368 41.1034 162.019 41.1034C162.266 41.1034 162.473 41.0638 162.641 40.9846L163.114 42.1542C162.818 42.2822 162.453 42.3462 162.019 42.3462Z" fill="white"/>
<path d="M165.697 40.5036C166.166 40.982 166.721 41.2216 167.362 41.2216C168.003 41.2216 168.558 40.982 169.027 40.5036C169.495 40.0252 169.73 39.3916 169.73 38.6016C169.73 37.8124 169.495 37.1784 169.027 36.7C168.558 36.2216 168.003 35.982 167.362 35.982C166.721 35.982 166.166 36.2216 165.697 36.7C165.228 37.1784 164.994 37.8124 164.994 38.6016C164.994 39.3916 165.228 40.0252 165.697 40.5036ZM164.683 35.8416C165.384 35.1068 166.277 34.7392 167.362 34.7392C168.447 34.7392 169.34 35.1068 170.041 35.8416C170.741 36.5768 171.091 37.4968 171.091 38.6016C171.091 39.7072 170.741 40.6272 170.041 41.362C169.34 42.0972 168.447 42.4644 167.362 42.4644C166.277 42.4644 165.384 42.0972 164.683 41.362C163.983 40.6272 163.633 39.7072 163.633 38.6016C163.633 37.4968 163.983 36.5768 164.683 35.8416Z" fill="white"/>
<path d="M173.548 42.2278H172.187V34.9758H173.489V36.1598H173.548C173.686 35.7654 173.97 35.4394 174.399 35.183C174.828 34.9266 175.245 34.7982 175.65 34.7982C176.054 34.7982 176.394 34.8574 176.671 34.9758L176.153 36.2486C175.975 36.1798 175.734 36.145 175.428 36.145C174.934 36.145 174.498 36.3398 174.118 36.7298C173.738 37.1194 173.548 37.6302 173.548 38.2614V42.2278Z" fill="white"/>
<path d="M182.354 37.7286C182.324 37.3142 182.134 36.9198 181.784 36.5446C181.434 36.1698 180.913 35.9822 180.223 35.9822C179.72 35.9822 179.283 36.1402 178.913 36.4558C178.543 36.7714 178.289 37.1958 178.151 37.7286H182.354ZM180.4 42.4646C179.305 42.4646 178.414 42.0998 177.729 41.3694C177.043 40.6394 176.7 39.717 176.7 38.6018C176.7 37.5462 177.033 36.6382 177.699 35.8786C178.365 35.119 179.216 34.739 180.252 34.739C181.328 34.739 182.189 35.0894 182.835 35.7898C183.481 36.4902 183.804 37.4278 183.804 38.6018L183.79 38.8538H178.062C178.101 39.5838 178.346 40.161 178.795 40.585C179.244 41.0094 179.769 41.2214 180.371 41.2214C181.348 41.2214 182.009 40.807 182.354 39.9782L183.568 40.4814C183.331 41.0438 182.941 41.515 182.398 41.895C181.856 42.2746 181.19 42.4646 180.4 42.4646Z" fill="white"/>
<path d="M66.808 22.6394H69.4736L68.1632 19.0218H68.1184L66.808 22.6394ZM64.5344 25.7754L67.5584 17.7562H68.7232L71.7472 25.7754H70.6048L69.832 23.6026H66.4608L65.6768 25.7754H64.5344Z" fill="white"/>
<path d="M73.5843 25.7754L71.3667 20.2874H72.4867L74.0995 24.5434H74.1219L75.7571 20.2874H76.8547L74.6147 25.7754H73.5843Z" fill="white"/>
<path d="M79.3184 25.0136C79.744 25.0136 80.1304 24.8552 80.4776 24.538C80.8248 24.2208 80.9984 23.8452 80.9984 23.412C80.7072 23.1732 80.2704 23.054 79.688 23.054C79.1876 23.054 78.8104 23.162 78.5568 23.3784C78.3028 23.5952 78.176 23.8488 78.176 24.14C78.176 24.4088 78.2916 24.622 78.5232 24.7784C78.7544 24.9356 79.0196 25.0136 79.3184 25.0136ZM79.1504 25.9548C78.568 25.9548 78.0808 25.7868 77.6888 25.4508C77.2968 25.1144 77.1008 24.6704 77.1008 24.118C77.1008 23.5208 77.332 23.052 77.7952 22.712C78.258 22.3724 78.8292 22.2028 79.5088 22.2028C80.1136 22.2028 80.61 22.3144 80.9984 22.5388V22.3816C80.9984 21.9784 80.86 21.6556 80.584 21.4128C80.3076 21.1704 79.968 21.0488 79.5648 21.0488C79.266 21.0488 78.9952 21.12 78.7528 21.2616C78.51 21.404 78.344 21.5976 78.2544 21.844L77.3136 21.4408C77.4404 21.1124 77.6904 20.808 78.064 20.528C78.4372 20.248 78.93 20.108 79.5424 20.108C80.244 20.108 80.8264 20.3136 81.2896 20.724C81.7524 21.1348 81.984 21.7136 81.984 22.46V25.7752H80.9984V25.0136H80.9536C80.5428 25.6408 79.9416 25.9548 79.1504 25.9548Z" fill="white"/>
<path d="M84.2687 25.7754H83.2383V20.2874H84.2687V25.7754ZM84.2687 18.9098C84.1267 19.0514 83.9551 19.1226 83.7535 19.1226C83.5519 19.1226 83.3799 19.0514 83.2383 18.9098C83.0963 18.7678 83.0251 18.5962 83.0251 18.3946C83.0251 18.193 83.0963 18.0214 83.2383 17.8794C83.3799 17.7374 83.5519 17.6666 83.7535 17.6666C83.9551 17.6666 84.1267 17.7374 84.2687 17.8794C84.4103 18.0214 84.4815 18.193 84.4815 18.3946C84.4815 18.5962 84.4103 18.7678 84.2687 18.9098Z" fill="white"/>
<path d="M86.6429 25.7754H85.6125V17.7562H86.6429V25.7754Z" fill="white"/>
<path d="M89.7454 25.0136C90.171 25.0136 90.5574 24.8552 90.9046 24.538C91.2518 24.2208 91.4254 23.8452 91.4254 23.412C91.1342 23.1732 90.6974 23.054 90.115 23.054C89.6146 23.054 89.2374 23.162 88.9838 23.3784C88.7298 23.5952 88.603 23.8488 88.603 24.14C88.603 24.4088 88.7186 24.622 88.9502 24.7784C89.1814 24.9356 89.4466 25.0136 89.7454 25.0136ZM89.5774 25.9548C88.995 25.9548 88.5078 25.7868 88.1158 25.4508C87.7238 25.1144 87.5278 24.6704 87.5278 24.118C87.5278 23.5208 87.759 23.052 88.2222 22.712C88.685 22.3724 89.2562 22.2028 89.9358 22.2028C90.5406 22.2028 91.037 22.3144 91.4254 22.5388V22.3816C91.4254 21.9784 91.287 21.6556 91.011 21.4128C90.7346 21.1704 90.395 21.0488 89.9918 21.0488C89.693 21.0488 89.4222 21.12 89.1798 21.2616C88.937 21.404 88.771 21.5976 88.6814 21.844L87.7406 21.4408C87.8674 21.1124 88.1174 20.808 88.491 20.528C88.8642 20.248 89.357 20.108 89.9694 20.108C90.671 20.108 91.2534 20.3136 91.7166 20.724C92.1794 21.1348 92.411 21.7136 92.411 22.46V25.7752H91.4254V25.0136H91.3806C90.9698 25.6408 90.3686 25.9548 89.5774 25.9548Z" fill="white"/>
<path d="M96.3087 25.0136C96.7863 25.0136 97.1971 24.8328 97.5407 24.4708C97.8839 24.1084 98.0559 23.6288 98.0559 23.0312C98.0559 22.434 97.8839 21.9544 97.5407 21.592C97.1971 21.23 96.7863 21.0488 96.3087 21.0488C95.8235 21.0488 95.4107 21.228 95.0711 21.5868C94.7315 21.9448 94.5615 22.4264 94.5615 23.0312C94.5615 23.6364 94.7315 24.118 95.0711 24.476C95.4107 24.8348 95.8235 25.0136 96.3087 25.0136ZM96.4767 25.9548C96.0587 25.9548 95.6835 25.8648 95.3511 25.686C95.0187 25.5064 94.7703 25.2824 94.6063 25.0136H94.5615V25.7752H93.5759V17.756H94.6063V20.2876L94.5615 21.0488H94.6063C94.7703 20.78 95.0187 20.556 95.3511 20.3768C95.6835 20.1976 96.0587 20.108 96.4767 20.108C97.1859 20.108 97.7983 20.3884 98.3135 20.948C98.8291 21.508 99.0859 22.2028 99.0859 23.0312C99.0859 23.86 98.8291 24.5548 98.3135 25.1144C97.7983 25.6744 97.1859 25.9548 96.4767 25.9548Z" fill="white"/>
<path d="M101.001 25.7754H99.9712V17.7562H101.001V25.7754Z" fill="white"/>
<path d="M106.165 22.3706C106.142 22.057 105.998 21.7586 105.734 21.4746C105.468 21.191 105.074 21.0486 104.552 21.0486C104.171 21.0486 103.84 21.1682 103.56 21.4074C103.28 21.6462 103.088 21.9674 102.984 22.3706H106.165ZM104.686 25.9546C103.857 25.9546 103.184 25.6786 102.665 25.1258C102.146 24.5734 101.886 23.8754 101.886 23.031C101.886 22.2322 102.138 21.5454 102.642 20.9706C103.146 20.3958 103.79 20.1082 104.574 20.1082C105.388 20.1082 106.04 20.3734 106.528 20.9034C107.018 21.4334 107.262 22.143 107.262 23.031L107.251 23.2218H102.917C102.946 23.7746 103.131 24.2114 103.471 24.5318C103.81 24.853 104.208 25.0134 104.664 25.0134C105.403 25.0134 105.903 24.6998 106.165 24.073L107.083 24.4538C106.904 24.879 106.609 25.2358 106.198 25.5234C105.788 25.8106 105.284 25.9546 104.686 25.9546Z" fill="white"/>
<path d="M111.787 25.7754H110.756V20.2874H111.787V25.7754ZM111.787 18.9098C111.645 19.0514 111.473 19.1226 111.272 19.1226C111.07 19.1226 110.898 19.0514 110.756 18.9098C110.614 18.7678 110.543 18.5962 110.543 18.3946C110.543 18.193 110.614 18.0214 110.756 17.8794C110.898 17.7374 111.07 17.6666 111.272 17.6666C111.473 17.6666 111.645 17.7374 111.787 17.8794C111.928 18.0214 112 18.193 112 18.3946C112 18.5962 111.928 18.7678 111.787 18.9098Z" fill="white"/>
<path d="M114.116 20.2874V21.0486H114.16C114.31 20.7878 114.545 20.5654 114.866 20.3822C115.187 20.1994 115.531 20.1082 115.897 20.1082C116.576 20.1082 117.095 20.317 117.454 20.7354C117.812 21.1534 117.991 21.7134 117.991 22.415V25.7754H116.96V22.5722C116.96 21.557 116.509 21.0486 115.606 21.0486C115.18 21.0486 114.833 21.2186 114.564 21.5586C114.295 21.8982 114.16 22.2922 114.16 22.7402V25.7754H113.13V20.2874H114.116Z" fill="white"/>
<path d="M124.039 25.8647C123.464 25.8647 123.025 25.7119 122.723 25.4059C122.42 25.0995 122.269 24.6663 122.269 24.1063V21.2279H121.306V20.2875H122.269V18.6071H123.3V20.2875H124.644V21.2279H123.3V24.0279C123.3 24.6255 123.546 24.9239 124.039 24.9239C124.226 24.9239 124.382 24.8943 124.509 24.8347L124.868 25.7195C124.644 25.8163 124.367 25.8647 124.039 25.8647Z" fill="white"/>
<path d="M126.715 17.7562V20.2874L126.671 21.0486H126.715C126.865 20.7878 127.1 20.5654 127.421 20.3822C127.742 20.1994 128.086 20.1082 128.452 20.1082C129.131 20.1082 129.65 20.317 130.008 20.7354C130.367 21.1534 130.546 21.7138 130.546 22.415V25.7754H129.515V22.5722C129.515 21.557 129.064 21.0486 128.16 21.0486C127.735 21.0486 127.388 21.2186 127.119 21.5586C126.85 21.8982 126.715 22.2922 126.715 22.7402V25.7754H125.685V17.7562H126.715Z" fill="white"/>
<path d="M135.72 22.3706C135.697 22.057 135.554 21.7586 135.289 21.4746C135.024 21.191 134.629 21.0486 134.107 21.0486C133.727 21.0486 133.396 21.1682 133.116 21.4074C132.836 21.6462 132.644 21.9674 132.539 22.3706H135.72ZM134.242 25.9546C133.413 25.9546 132.739 25.6786 132.22 25.1258C131.701 24.5734 131.442 23.8754 131.442 23.031C131.442 22.2322 131.694 21.5454 132.197 20.9706C132.701 20.3958 133.345 20.1082 134.129 20.1082C134.943 20.1082 135.595 20.3734 136.084 20.9034C136.573 21.4334 136.817 22.143 136.817 23.031L136.807 23.2218H132.472C132.502 23.7746 132.687 24.2114 133.027 24.5318C133.366 24.853 133.763 25.0134 134.219 25.0134C134.959 25.0134 135.459 24.6998 135.72 24.073L136.639 24.4538C136.459 24.879 136.164 25.2358 135.754 25.5234C135.343 25.8106 134.839 25.9546 134.242 25.9546Z" fill="white"/>
</g>
<mask id="mask1_25_104" style="mask-type:luminance" maskUnits="userSpaceOnUse" x="9" y="11" width="45" height="39">
<path d="M9.55762 11.0288V46.096C9.55762 47.7492 10.9104 49.1016 12.5636 49.1016H50.636C52.2892 49.1016 53.642 47.7492 53.642 46.096V11.0288H9.55762ZM24.5864 17.0404C24.5864 15.9332 25.4832 15.0364 26.5904 15.0364H36.6096C37.7164 15.0364 38.6136 15.9332 38.6136 17.0404C38.6136 18.1476 37.7164 19.0444 36.6096 19.0444H26.5904C25.4832 19.0444 24.5864 18.1476 24.5864 17.0404Z" fill="white"/>
</mask>
<g mask="url(#mask1_25_104)">
<path d="M9.55811 11.0288H53.6425V49.1016H9.55811V11.0288Z" fill="#EEEEEE"/>
<path d="M36.6096 15.0366H26.5904C25.4836 15.0366 24.5864 15.9334 24.5864 17.0406C24.5864 18.1474 25.4836 19.0442 26.5904 19.0442H36.6096C37.7168 19.0442 38.6136 18.1474 38.6136 17.0406C38.6136 15.9334 37.7168 15.0366 36.6096 15.0366Z" fill="white"/>
</g>
<mask id="mask2_25_104" style="mask-type:luminance" maskUnits="userSpaceOnUse" x="12" y="27" width="39" height="23">
<path d="M12.5637 46.096C12.5637 46.1116 12.5637 46.1268 12.5637 46.1424C12.5637 46.154 12.5641 46.166 12.5641 46.178C12.5641 46.1884 12.5641 46.1992 12.5641 46.2092C12.5641 46.2104 12.5641 46.212 12.5641 46.2132C12.5641 46.2228 12.5641 46.2316 12.5645 46.2412C12.5645 46.248 12.5645 46.2544 12.5645 46.2608C12.5645 46.2672 12.5645 46.2748 12.5645 46.2812C12.5649 46.2824 12.5649 46.2836 12.5649 46.2844C12.5649 46.2984 12.5653 46.3128 12.5653 46.3268C12.5653 46.3284 12.5653 46.33 12.5653 46.3316C12.5653 46.3364 12.5653 46.3412 12.5653 46.3456C12.5657 46.3472 12.5657 46.3488 12.5657 46.3504C12.5657 46.3532 12.5657 46.3564 12.5657 46.3592C12.5657 46.3668 12.5657 46.3748 12.5657 46.3824C12.5661 46.3884 12.5661 46.3948 12.5661 46.4008C12.5661 46.4028 12.5661 46.4052 12.5661 46.4076C12.5665 46.4268 12.5669 46.4464 12.5673 46.4656C12.5673 46.466 12.5673 46.4668 12.5673 46.4676C12.5681 46.4996 12.5685 46.5304 12.5697 46.5624C12.5697 46.5692 12.5697 46.5756 12.5697 46.5824C12.5697 46.5828 12.5697 46.5832 12.5697 46.5832C12.5701 46.5852 12.5701 46.5872 12.5701 46.5892C12.5701 46.592 12.5701 46.5944 12.5701 46.5972C12.5705 46.6124 12.5709 46.6276 12.5713 46.6432C12.5717 46.6476 12.5717 46.6524 12.5721 46.6568C12.5725 46.6668 12.5725 46.6756 12.5729 46.6856C12.5729 46.686 12.5729 46.6864 12.5729 46.6872C12.5729 46.6936 12.5733 46.6992 12.5733 46.7056C12.5733 46.7072 12.5733 46.7088 12.5733 46.7104C12.5741 46.7312 12.5749 46.7508 12.5757 46.772C12.5757 46.7748 12.5757 46.7772 12.5761 46.78C12.5765 46.7936 12.5769 46.8084 12.5773 46.822C12.5773 46.8224 12.5773 46.8236 12.5773 46.8244C12.5777 46.8288 12.5777 46.8332 12.5781 46.8376C12.5781 46.8388 12.5781 46.84 12.5781 46.8412C12.5781 46.842 12.5781 46.8424 12.5781 46.8432C12.5781 46.8452 12.5781 46.8464 12.5785 46.8484C12.5785 46.8488 12.5785 46.8492 12.5785 46.85C12.5801 46.886 12.5813 46.9212 12.5829 46.9568C12.5837 46.9752 12.5845 46.9952 12.5853 47.0136C12.5857 47.0152 12.5857 47.0164 12.5857 47.018C12.5861 47.0212 12.5861 47.0244 12.5861 47.0276C12.5861 47.0284 12.5861 47.03 12.5861 47.0304C12.5865 47.0312 12.5865 47.032 12.5865 47.0328C12.5869 47.04 12.5873 47.0472 12.5873 47.0544C12.5877 47.0588 12.5877 47.0628 12.5881 47.0672C12.5881 47.068 12.5881 47.0688 12.5881 47.0696C12.5881 47.0704 12.5881 47.0708 12.5885 47.0716C12.5885 47.0732 12.5885 47.0748 12.5885 47.0768C12.5893 47.0908 12.5901 47.1056 12.5909 47.12C12.5909 47.1252 12.5913 47.1304 12.5917 47.1356C12.5917 47.136 12.5917 47.1364 12.5917 47.1368C12.5937 47.1692 12.5953 47.2004 12.5973 47.2324C12.5977 47.24 12.5981 47.2476 12.5985 47.256C12.5985 47.2572 12.5985 47.2584 12.5989 47.2592C12.5989 47.26 12.5989 47.2608 12.5989 47.2612C12.5989 47.2616 12.5989 47.2624 12.5989 47.2628C12.6001 47.2804 12.6013 47.2984 12.6021 47.316C12.6021 47.3164 12.6021 47.3168 12.6021 47.3168C12.6021 47.3176 12.6025 47.3184 12.6025 47.3188C12.6025 47.3192 12.6025 47.3196 12.6025 47.3196C12.6053 47.3596 12.6077 47.3996 12.6105 47.4392C12.6105 47.4396 12.6105 47.4404 12.6105 47.4408C12.6113 47.4488 12.6117 47.4564 12.6125 47.4644C12.6129 47.4704 12.6133 47.4768 12.6137 47.4832C12.6141 47.4888 12.6141 47.494 12.6145 47.4996C12.6149 47.5004 12.6149 47.5012 12.6149 47.502C12.6265 47.66 12.6401 47.8184 12.6553 47.9756C12.6557 47.9808 12.6565 47.9856 12.6569 47.9908C12.6581 48.0032 12.6593 48.0156 12.6605 48.0284C12.6613 48.0356 12.6621 48.0432 12.6629 48.0508C12.6637 48.0596 12.6645 48.0672 12.6653 48.076C12.6821 48.2356 12.7005 48.3944 12.7209 48.5528C12.7213 48.5556 12.7213 48.5572 12.7217 48.5596C12.7233 48.5732 12.7253 48.5872 12.7269 48.6008C12.7277 48.606 12.7285 48.6112 12.7289 48.616C12.7305 48.6276 12.7321 48.6388 12.7337 48.6504C12.7349 48.6604 12.7365 48.6712 12.7377 48.6808C12.7389 48.688 12.7397 48.6952 12.7405 48.7024C12.7589 48.836 12.7785 48.9692 12.7997 49.1016H50.4005C50.4309 48.9096 50.4585 48.7172 50.4829 48.5232C50.4833 48.522 50.4833 48.5212 50.4833 48.52C50.4849 48.5072 50.4865 48.4952 50.4881 48.4824C50.4893 48.4728 50.4905 48.4636 50.4917 48.454C50.4925 48.446 50.4937 48.4368 50.4949 48.4284C50.4965 48.4144 50.4981 48.4004 50.4997 48.3864C50.5005 48.3808 50.5009 48.376 50.5017 48.3704C50.5037 48.3528 50.5061 48.3352 50.5081 48.3176C50.5081 48.3152 50.5085 48.3124 50.5089 48.31C50.5189 48.2232 50.5285 48.1364 50.5373 48.0492C50.5617 47.8076 50.5817 47.5644 50.5973 47.3204C50.5973 47.32 50.5977 47.3196 50.5977 47.3192C50.5977 47.3184 50.5977 47.3176 50.5977 47.3168C50.5977 47.3164 50.5977 47.3156 50.5977 47.3152C50.5989 47.2972 50.5997 47.2796 50.6009 47.2616C50.6009 47.2616 50.6013 47.2612 50.6013 47.2608C50.6013 47.26 50.6013 47.2592 50.6013 47.2588C50.6013 47.2584 50.6013 47.2584 50.6013 47.258C50.6017 47.2484 50.6025 47.2384 50.6029 47.2288C50.6041 47.2136 50.6049 47.1984 50.6057 47.1832C50.6065 47.1676 50.6073 47.152 50.6081 47.1364C50.6085 47.1276 50.6093 47.1184 50.6097 47.11C50.6097 47.1084 50.6097 47.1068 50.6101 47.1052C50.6101 47.1028 50.6101 47.1012 50.6101 47.0988C50.6105 47.0976 50.6105 47.0964 50.6105 47.0956C50.6109 47.0912 50.6109 47.0864 50.6109 47.0816C50.6109 47.0808 50.6113 47.08 50.6113 47.0788C50.6113 47.0784 50.6113 47.0776 50.6113 47.0768C50.6113 47.076 50.6113 47.0756 50.6117 47.0748C50.6117 47.0728 50.6117 47.0716 50.6117 47.0696C50.6117 47.0696 50.6117 47.0692 50.6117 47.0688C50.6121 47.0616 50.6125 47.054 50.6129 47.0464C50.6133 47.0404 50.6133 47.034 50.6137 47.028C50.6141 47.0248 50.6141 47.0216 50.6141 47.0184C50.6141 47.0168 50.6145 47.0156 50.6145 47.0148C50.6161 46.978 50.6177 46.9412 50.6193 46.9044C50.6193 46.904 50.6193 46.9036 50.6193 46.9032C50.6193 46.902 50.6197 46.8992 50.6197 46.898C50.6197 46.8976 50.6197 46.8968 50.6197 46.8964C50.6197 46.8932 50.6201 46.89 50.6201 46.8868C50.6201 46.8864 50.6201 46.8856 50.6201 46.8848C50.6209 46.8692 50.6213 46.8532 50.6221 46.8376C50.6221 46.836 50.6221 46.8344 50.6221 46.8332C50.6221 46.8316 50.6221 46.8304 50.6221 46.8296C50.6229 46.816 50.6233 46.8036 50.6237 46.79C50.6241 46.7848 50.6241 46.7796 50.6245 46.7748C50.6245 46.7728 50.6245 46.7716 50.6245 46.7696C50.6249 46.758 50.6253 46.7464 50.6257 46.7348C50.6261 46.7264 50.6261 46.7188 50.6265 46.7104C50.6265 46.7092 50.6265 46.7072 50.6265 46.706C50.6269 46.7 50.6269 46.694 50.6273 46.688C50.6277 46.6764 50.6281 46.6652 50.6281 46.6536C50.6281 46.6524 50.6285 46.6508 50.6285 46.6496C50.6285 46.648 50.6285 46.6468 50.6285 46.6452C50.6289 46.6312 50.6293 46.6168 50.6297 46.6028C50.6297 46.6008 50.6297 46.5984 50.6297 46.596C50.6297 46.5952 50.6297 46.594 50.6297 46.5928C50.6301 46.5896 50.6301 46.5864 50.6301 46.5832C50.6301 46.5828 50.6301 46.5824 50.6301 46.582C50.6301 46.5792 50.6301 46.5764 50.6305 46.5736C50.6305 46.5612 50.6309 46.5504 50.6313 46.538C50.6317 46.5152 50.6321 46.4924 50.6325 46.4692C50.6325 46.4668 50.6325 46.4636 50.6329 46.4608C50.6329 46.4568 50.6329 46.4536 50.6329 46.4496C50.6329 46.4488 50.6329 46.448 50.6329 46.4472C50.6329 46.438 50.6333 46.4296 50.6333 46.4208C50.6333 46.42 50.6337 46.4188 50.6337 46.418C50.6337 46.4148 50.6337 46.4116 50.6337 46.4084C50.6337 46.4052 50.6337 46.4008 50.6337 46.3972C50.6341 46.3888 50.6341 46.3808 50.6341 46.3728C50.6341 46.372 50.6341 46.3716 50.6341 46.3708C50.6345 46.3668 50.6345 46.3628 50.6345 46.3592C50.6345 46.3568 50.6345 46.3544 50.6345 46.352C50.6345 46.3504 50.6345 46.3484 50.6345 46.3468C50.6349 46.3416 50.6349 46.3364 50.6349 46.3316C50.6349 46.3304 50.6349 46.3288 50.6349 46.3276C50.6349 46.3128 50.6353 46.2972 50.6353 46.2824C50.6353 46.282 50.6353 46.2812 50.6353 46.2808C50.6353 46.2744 50.6353 46.2672 50.6357 46.2608C50.6357 46.26 50.6357 46.2592 50.6357 46.2584C50.6357 46.2528 50.6357 46.2472 50.6357 46.2416C50.6357 46.232 50.6357 46.2224 50.6361 46.2128C50.6361 46.2116 50.6361 46.2108 50.6361 46.21C50.6361 46.1988 50.6361 46.1876 50.6361 46.1768C50.6361 46.1652 50.6361 46.1536 50.6361 46.142C50.6361 46.1264 50.6361 46.1116 50.6361 46.096C50.6361 35.5824 42.1137 27.0596 31.6001 27.0596C21.0869 27.0596 12.5637 35.5824 12.5637 46.096Z" fill="white"/>
</mask>
<g mask="url(#mask2_25_104)">
<path d="M15.5869 27.0596V50.4216H24.1057L31.6001 37.442H50.6365V27.0596H15.5869ZM15.5869 27.0596V50.4216H24.1057L31.6001 37.442H50.6365V27.0596H15.5869Z" fill="#DB4437"/>
<path d="M12.5637 65.1323H30.6833L39.0945 56.7211V50.4239L24.1057 50.4215L12.5637 30.6259V65.1323ZM12.5637 65.1323H30.6833L39.0945 56.7211V50.4239L24.1057 50.4215L12.5637 30.6259V65.1323Z" fill="#0F9D58"/>
<path d="M31.5999 37.4418L39.0943 50.4214L30.6855 65.1326H50.6363V37.4418H31.5999ZM31.5999 37.4418L39.0943 50.4214L30.6855 65.1326H50.6363V37.4418H31.5999Z" fill="#FFCD40"/>
<path d="M31.6 37.4418C36.3796 37.4418 40.254 41.3166 40.254 46.0962C40.254 50.8754 36.3796 54.7502 31.6 54.7502C26.8204 54.7502 22.946 50.8754 22.946 46.0962C22.946 41.3166 26.8204 37.4418 31.6 37.4418Z" fill="#F1F1F1"/>
<path d="M31.6 39.1726C35.4236 39.1726 38.5232 42.2722 38.5232 46.0962C38.5232 49.9194 35.4236 53.019 31.6 53.019C27.7764 53.019 24.6768 49.9194 24.6768 46.0962C24.6768 42.2722 27.7764 39.1726 31.6 39.1726Z" fill="#4285F4"/>
</g>
<mask id="mask3_25_104" style="mask-type:luminance" maskUnits="userSpaceOnUse" x="9" y="11" width="45" height="39">
<path d="M9.55762 11.0288V46.096C9.55762 47.7492 10.9104 49.1016 12.5636 49.1016H50.636C52.2892 49.1016 53.642 47.7492 53.642 46.096V11.0288H9.55762ZM24.5864 17.0404C24.5864 15.9332 25.4832 15.0364 26.5904 15.0364H36.6096C37.7164 15.0364 38.6136 15.9332 38.6136 17.0404C38.6136 18.1476 37.7164 19.0444 36.6096 19.0444H26.5904C25.4832 19.0444 24.5864 18.1476 24.5864 17.0404Z" fill="white"/>
</mask>
<g mask="url(#mask3_25_104)">
<mask id="mask4_25_104" style="mask-type:luminance" maskUnits="userSpaceOnUse" x="9" y="11" width="45" height="20">
<path d="M9.55786 11.0287H53.642V30.0652H9.55786V11.0287Z" fill="white"/>
</mask>
<g mask="url(#mask4_25_104)">
<g opacity="0.0500031">
<path d="M9.55786 11.0288H53.6423V30.0652H9.55786V11.0288Z" fill="#212121"/>
</g>
</g>
</g>
</g>
<defs>
<clipPath id="clip0_25_104">
<rect width="198.4" height="60" rx="3" fill="white"/>
</clipPath>
</defs>
</svg>
